<?xml version="1.0" encoding="utf-8"?>
<svg viewBox="0 0 500 500" xmlns="http://www.w3.org/2000/svg">
  <path style="fill: rgb(254, 240, 178); stroke: rgb(45, 45, 45);" d="M 115.823 91.73 L 161.193 453.806 C 198.578 489.371 307.215 491.899 348.461 457.14 L 396.198 89.12 C 384.188 112.819 146.93 124.515 115.823 91.73 Z"/>
  <path style="fill: rgb(81, 131, 158);" d="M 101.453 87.501 L 115.516 89.903 C 118.744 126.659 393.305 125.639 395.99 89.122 L 408.096 86.46 L 409.379 76.275 L 398.144 71.494 L 387.85 37.825 C 380.306 70.937 127.456 65.369 116.016 36.25 L 107.982 71.092 L 98.889 76.372 L 101.453 87.501 Z"/>
  <path style="fill: rgb(81, 131, 158);" d="M 129.498 202.462 C 133.897 238.701 375.372 242.072 380.155 206.286 L 366.604 312.556 C 361.386 359.131 148.379 353.16 143.076 309.464 C 137.771 265.766 124.92 170.917 129.498 202.462 Z"/>
  <path style="fill: rgb(61, 98, 118);" d="M 116.215 35.336 C 156.316 8.665 358.457 11.78 387.66 36.006 C 397.032 71.275 116.238 66.898 116.215 35.336 Z"/>
  <path style="fill: rgb(220, 244, 254);" d="M 228.195 301.829 C 228.227 302.061 240.381 278.99 255.865 286.344 C 272.821 291.708 279.943 273.706 279.745 273.776 C 275.246 257.81 218.252 263.391 228.195 301.829 Z" transform="matrix(0.890326, -0.455324, 0.455324, 0.890326, -101.348159, 146.480531)"/>
  <path style="fill: rgb(220, 244, 254);" d="M 238.053 308.944 C 238.091 309.172 250.238 286.049 265.679 293.421 C 282.588 298.8 289.718 280.753 289.519 280.824 C 285.044 264.825 228.18 270.415 238.053 308.944 Z" transform="matrix(-0.897955, 0.440087, -0.440087, -0.897955, 627.496981, 435.883578)"/>
  <path style="fill: rgb(116, 160, 185); stroke: rgb(45, 45, 45);" d="M 143.954 34.153 C 176.771 13.637 341.559 16.521 365.457 35.156 C 372.732 61.919 144.989 57.95 143.954 34.153 Z"/>
  <path style="fill: rgb(220, 244, 254);" d="M 264.65 46.416 C 268.146 51.668 257.82 70.436 253.043 70.864 L 248.103 62.216 L 254.746 48.88 L 264.65 46.416 Z" transform="matrix(0.424365, 0.905491, -0.905491, 0.424365, 200.881367, -198.712328)"/>
  <path style="fill: rgb(68, 96, 111);" d="M 155.127 38.854 C 150.128 24.063 364.192 26.509 358.434 41.13 C 351.55 58.608 162.985 56.243 155.127 38.854 Z"/>
  <path style="fill: none; stroke: rgb(45, 45, 45);" d="M 115.927 90.374 L 102.184 87.451 L 98.983 75.747 L 108.272 71.748 L 116.566 35.249 C 138.613 12.772 351.528 7.966 387.692 35.81 L 397.664 70.459 L 409.75 76.895 L 408.263 86.254 L 396.18 88.957"/>
</svg>