<?xml version="1.0" encoding="utf-8"?>
<svg viewBox="0 0 500 500" xmlns="http://www.w3.org/2000/svg">
  <path style="fill: rgb(254, 240, 178); stroke: rgb(45, 45, 45);" d="M 141.432 173.506 L 179.108 459.614 C 209.968 487.824 299.444 490.604 333.491 463.034 L 372.093 174.338 C 362.179 193.136 167.109 199.511 141.432 173.506 Z"/>
  <path style="fill: rgb(81, 131, 158); stroke: rgb(45, 45, 45);" d="M 129.975 169.068 L 141.175 171.24 C 143.478 200.042 376.087 198.091 373.165 170.595 L 384.21 169.819 L 385.148 159.689 L 373.815 154.691 L 366.205 129.666 C 359.978 155.93 151.259 151.513 141.816 128.417 L 135.184 156.053 L 127.678 160.241 L 129.975 169.068 Z"/>
  <path style="fill: rgb(81, 131, 158); stroke: rgb(45, 45, 45);" d="M 154.104 268.31 C 157.735 294.911 355.251 297.386 359.196 271.118 L 348.66 349.117 C 344.353 383.305 168.59 378.922 164.213 346.849 C 159.835 314.777 150.327 245.157 154.104 268.31 Z"/>
  <path style="fill: rgb(220, 244, 254); stroke: rgb(45, 45, 45);" d="M 264.384 357.044 C 264.737 339.124 280.408 337.151 282.149 322.7 C 285.431 295.475 257.273 301.494 257.338 323.603 C 259.074 292.651 224.982 303.284 232.99 327.2 C 240.997 351.116 264.514 357.016 264.384 357.044 Z"/>
  <path style="fill: rgb(89, 119, 136); stroke: rgb(45, 45, 45);" d="M 142.185 127.063 C 175.287 105.908 341.502 108.882 365.609 128.098 C 373.345 156.073 143.229 151.602 142.185 127.063 Z"/>
  <path style="fill: none; stroke-width: 5px; stroke: rgb(160, 150, 118); stroke-linecap: round;" d="M 213.06 57.661 C 241.752 65.258 221.517 86.554 214.581 96.291 C 208.521 104.799 189.77 122.803 224.703 134.85"/>
  <path style="fill: none; stroke-width: 5px; stroke: rgb(160, 150, 118); stroke-linecap: round;" d="M 258.459 35.241 C 248.346 66.811 253.243 75.691 260.946 82.344 C 272.543 92.362 298.302 102.981 277.498 129.362" transform="matrix(0.939693, 0.34202, -0.34202, 0.939693, 44.374671, -87.058474)"/>
</svg>