<?xml version="1.0" encoding="utf-8"?>
<svg viewBox="0 0 1500 1500" xmlns="http://www.w3.org/2000/svg">
  <path d="M 752.96 488 C 698.257 488 653.507 532.75 653.507 587.453 C 653.507 642.156 698.257 686.906 752.96 686.906 C 807.663 686.906 852.413 642.156 852.413 587.453 C 852.413 532.75 807.663 488 752.96 488 Z M 752.96 525.887 C 787.187 525.887 814.526 553.227 814.526 587.453 C 814.526 621.68 787.186 649.019 752.96 649.019 C 718.734 649.019 691.394 621.679 691.394 587.453 C 691.394 553.226 718.734 525.887 752.96 525.887 Z M 752.96 696.377 C 651.99 696.377 573 791.432 573 904.757 L 573 904.761 C 573.004 909.784 575 914.601 578.551 918.152 C 582.102 921.707 586.922 923.703 591.946 923.703 L 913.986 923.703 C 919.009 923.703 923.826 921.707 927.381 918.152 C 930.932 914.601 932.928 909.785 932.928 904.761 C 932.928 791.441 853.94 696.381 752.968 696.381 L 752.96 696.377 Z M 752.96 734.264 C 824.632 734.264 885.39 799.323 893.41 885.814 L 612.52 885.814 C 620.532 799.326 681.297 734.264 752.97 734.264 L 752.96 734.264 Z" fill="#4b5478"/>
</svg>