<?xml version="1.0" encoding="utf-8"?>
<svg viewBox="0 0 500 500" xmlns="http://www.w3.org/2000/svg">
  <path d="M 100.609 0 L 400.609 0 C 455.837 0 500.609 44.772 500.609 100 L 500.609 400 C 500.609 455.228 455.837 500 400.609 500 L 100.609 500 C 45.381 500 0.609 455.228 0.609 400 L 0.609 100 C 0.609 44.772 45.381 0 100.609 0 Z M 400.366 321.363 C 396.873 313.296 390.44 304.049 384.24 297.993 C 378.041 291.937 368.574 285.653 360.316 282.241 C 352.128 278.858 340.535 276.451 331 276.451 C 321.465 276.451 309.873 278.858 301.685 282.241 C 295.867 284.645 289.449 288.474 283.997 292.644 C 273.892 287.263 255.309 277.366 244.39 271.552 C 234.869 266.482 225.349 261.412 215.828 256.341 C 216.13 253.769 216.293 251.239 216.293 248.842 C 216.293 247.065 216.203 245.214 216.034 243.328 C 226.695 237.664 237.356 232 248.018 226.336 C 257.73 221.176 273.631 212.728 283.893 207.276 C 289.368 211.478 295.83 215.34 301.685 217.759 C 309.873 221.142 321.465 223.549 331 223.549 C 340.536 223.549 352.128 221.142 360.316 217.759 C 368.575 214.347 378.041 208.063 384.241 202.007 C 390.44 195.951 396.873 186.704 400.366 178.636 C 403.829 170.638 406.293 159.314 406.293 150 C 406.293 140.686 403.829 129.362 400.366 121.364 C 396.873 113.296 390.44 104.049 384.241 97.993 C 378.041 91.937 368.575 85.653 360.316 82.241 C 352.128 78.858 340.536 76.451 331 76.451 C 321.465 76.451 309.873 78.858 301.685 82.241 C 293.426 85.653 283.96 91.937 277.76 97.993 C 271.56 104.049 265.128 113.296 261.635 121.364 C 258.171 129.362 255.707 140.686 255.707 150 C 255.707 154.639 256.318 159.777 257.36 164.754 C 247.201 170.152 233.347 177.512 224.558 182.181 C 214.769 187.382 204.979 192.583 195.189 197.785 C 194.872 197.46 194.556 197.143 194.24 196.835 C 188.041 190.779 178.575 184.495 170.316 181.083 C 162.128 177.7 150.536 175.293 141 175.293 C 131.465 175.293 119.873 177.7 111.685 181.083 C 103.426 184.495 93.96 190.779 87.76 196.835 C 81.56 202.891 75.128 212.138 71.635 220.206 C 68.171 228.204 65.707 239.528 65.707 248.842 C 65.707 258.157 68.171 269.48 71.635 277.479 C 75.128 285.546 81.56 294.793 87.76 300.849 C 93.96 306.905 103.426 313.189 111.685 316.601 C 119.873 319.984 131.465 322.391 141 322.391 C 150.536 322.391 162.128 319.984 170.316 316.601 C 178.387 313.267 187.61 307.19 193.811 301.264 C 202.836 306.07 211.862 310.877 220.888 315.683 C 230.765 320.944 246.915 329.544 257.386 335.12 C 256.329 340.137 255.707 345.322 255.707 350 C 255.707 359.314 258.171 370.638 261.634 378.636 C 265.128 386.704 271.56 395.951 277.76 402.007 C 283.959 408.063 293.426 414.347 301.685 417.759 C 309.873 421.142 321.465 423.549 331 423.549 C 340.535 423.549 352.128 421.142 360.316 417.759 C 368.574 414.347 378.041 408.063 384.24 402.007 C 390.44 395.951 396.873 386.704 400.366 378.636 C 403.829 370.638 406.293 359.314 406.293 350 C 406.293 340.685 403.829 329.362 400.366 321.363 Z M 355.708 350 C 355.708 354.173 355.373 355.698 353.776 359.387 C 352.209 363.006 351.319 364.283 348.471 367.066 C 345.622 369.848 344.315 370.718 340.609 372.249 C 336.833 373.808 335.272 374.135 331 374.135 C 326.728 374.135 325.167 373.808 321.391 372.249 C 317.686 370.718 316.378 369.848 313.529 367.066 C 310.681 364.283 309.791 363.006 308.224 359.387 C 306.627 355.698 306.293 354.173 306.293 350 C 306.293 345.827 306.627 344.302 308.224 340.613 C 309.791 336.994 310.681 335.717 313.529 332.934 C 316.378 330.151 317.686 329.282 321.391 327.751 C 325.167 326.191 326.728 325.865 331 325.865 C 335.272 325.865 336.833 326.191 340.609 327.751 C 344.315 329.282 345.622 330.151 348.471 332.934 C 351.319 335.717 352.209 336.994 353.776 340.613 C 355.373 344.302 355.708 345.827 355.708 350 Z M 165.708 248.842 C 165.708 253.015 165.373 254.541 163.777 258.229 C 162.209 261.848 161.319 263.126 158.471 265.909 C 155.622 268.691 154.315 269.56 150.61 271.091 C 146.834 272.651 145.272 272.978 141 272.978 C 136.728 272.978 135.167 272.651 131.391 271.091 C 127.686 269.56 126.378 268.691 123.529 265.909 C 120.681 263.126 119.791 261.848 118.224 258.229 C 116.627 254.541 116.293 253.015 116.293 248.842 C 116.293 244.669 116.627 243.144 118.224 239.456 C 119.791 235.836 120.681 234.559 123.529 231.776 C 126.378 228.994 127.686 228.125 131.391 226.593 C 135.167 225.034 136.728 224.707 141 224.707 C 145.272 224.707 146.834 225.034 150.61 226.593 C 154.315 228.125 155.622 228.994 158.471 231.776 C 161.319 234.559 162.209 235.836 163.777 239.456 C 165.373 243.144 165.708 244.669 165.708 248.842 Z M 355.708 150 C 355.708 154.173 355.373 155.698 353.777 159.387 C 352.209 163.006 351.32 164.283 348.471 167.066 C 345.622 169.849 344.315 170.718 340.61 172.248 C 336.834 173.809 335.272 174.135 331 174.135 C 326.728 174.135 325.167 173.809 321.391 172.248 C 317.686 170.718 316.378 169.849 313.529 167.066 C 310.681 164.283 309.791 163.006 308.224 159.387 C 306.627 155.698 306.293 154.173 306.293 150 C 306.293 145.827 306.627 144.302 308.224 140.613 C 309.791 136.994 310.681 135.717 313.529 132.934 C 316.378 130.151 317.686 129.282 321.391 127.751 C 325.167 126.191 326.728 125.865 331 125.865 C 335.272 125.865 336.834 126.191 340.61 127.751 C 344.315 129.282 345.622 130.151 348.471 132.934 C 351.32 135.717 352.209 136.994 353.777 140.613 C 355.373 144.302 355.708 145.827 355.708 150 Z" style="fill: rgb(255, 255, 255);"/>
  <circle style="fill: none; stroke-width: 81.3588px;" transform="matrix(0.621762, 0, 0, 0.607361, 60.428932, -113.871086)" cx="441.602" cy="434.455" r="80.417"/>
  <circle style="fill: none; stroke-width: 81.3588px;" transform="matrix(0.621762, 0, 0, 0.607361, -148.445343, -4.279103)" cx="471.958" cy="416.756" r="80.417"/>
  <circle style="fill: none; stroke-width: 81.3588px;" transform="matrix(0.621762, 0, 0, 0.607361, 46.422276, 114.949913)" cx="464.129" cy="387.002" r="80.417"/>
  <path d="M 403.793 350 C 403.793 359.367 401.303 370.79 397.825 378.835 C 394.308 386.946 387.82 396.273 381.589 402.365 C 375.354 408.45 365.808 414.786 357.507 418.221 C 349.274 421.618 337.586 424.049 328 424.049 C 318.414 424.049 306.727 421.618 298.494 418.221 C 290.192 414.786 280.646 408.45 274.411 402.365 C 268.18 396.273 261.693 386.946 258.175 378.835 C 254.697 370.791 252.207 359.367 252.207 350 C 252.207 345.292 252.806 340.31 253.82 335.385 C 243.342 329.806 227.53 321.385 217.653 316.124 C 208.627 311.318 199.813 306.624 190.894 301.875 C 184.658 307.829 175.62 313.707 167.507 317.063 C 159.274 320.46 147.587 322.891 138 322.891 C 128.414 322.891 116.727 320.46 108.494 317.063 C 100.192 313.628 90.644 307.295 84.411 301.207 C 78.177 295.118 71.693 285.788 68.176 277.678 C 64.697 269.633 62.207 258.21 62.207 248.842 C 62.207 239.475 64.697 228.052 68.176 220.007 C 71.693 211.896 78.177 202.566 84.411 196.477 C 90.644 190.389 100.192 184.056 108.494 180.621 C 116.727 177.224 128.414 174.793 138 174.793 C 147.587 174.793 159.274 177.224 167.507 180.621 C 175.809 184.056 185.354 190.392 191.589 196.477 C 191.908 196.788 192.052 196.933 192.284 197.168 C 201.964 192.025 211.534 186.94 221.323 181.739 C 230.112 177.07 243.667 169.869 253.794 164.488 C 252.795 159.604 252.207 154.669 252.207 150 C 252.207 140.633 254.697 129.21 258.176 121.165 C 261.693 113.054 268.177 103.724 274.411 97.635 C 280.644 91.547 290.192 85.214 298.494 81.779 C 306.727 78.382 318.414 75.951 328 75.951 C 337.587 75.951 349.274 78.382 357.507 81.779 C 365.809 85.214 375.354 91.55 381.59 97.635 C 387.82 103.727 394.308 113.054 397.825 121.165 C 401.303 129.21 403.793 140.633 403.793 150 C 403.793 159.367 401.303 170.79 397.825 178.835 C 394.308 186.946 387.82 196.273 381.59 202.365 C 375.354 208.45 365.809 214.786 357.507 218.221 C 349.274 221.618 337.587 224.049 328 224.049 C 318.414 224.049 306.727 221.618 298.494 218.221 C 292.606 215.786 286.289 212.011 280.844 207.868 C 270.575 213.324 254.965 221.618 245.253 226.778 C 234.591 232.442 224.124 238.002 213.561 243.614 C 213.731 245.51 213.793 247.053 213.793 248.842 C 213.793 251.255 213.642 253.59 213.364 256.06 C 222.885 261.131 232.104 266.041 241.625 271.111 C 252.544 276.925 270.783 286.639 280.949 292.052 C 286.37 287.941 292.643 284.199 298.494 281.779 C 306.727 278.382 318.414 275.951 328 275.951 C 337.586 275.951 349.274 278.382 357.507 281.779 C 365.808 285.214 375.354 291.55 381.589 297.635 C 387.82 303.727 394.308 313.054 397.825 321.164 C 401.303 329.21 403.793 340.632 403.793 350 Z M 396.907 321.562 C 393.438 313.538 387.06 304.371 380.891 298.351 C 374.728 292.324 365.34 286.092 357.125 282.703 C 348.982 279.334 337.484 276.951 328 276.951 C 318.516 276.951 307.019 279.334 298.876 282.703 C 293.091 285.091 286.729 288.887 281.301 293.041 L 281.046 293.236 L 280.762 293.085 C 270.657 287.704 252.074 277.807 241.155 271.993 C 231.634 266.923 222.114 261.853 212.593 256.782 L 212.292 256.622 L 212.331 256.283 C 212.632 253.724 212.793 251.223 212.793 248.842 C 212.793 247.077 212.704 245.248 212.536 243.373 L 212.506 243.042 L 212.799 242.886 C 223.46 237.222 234.121 231.558 244.783 225.894 C 254.495 220.734 270.396 212.286 280.658 206.834 L 280.942 206.684 L 281.197 206.879 C 286.648 211.065 293.054 214.894 298.876 217.297 C 307.019 220.666 318.516 223.049 328 223.049 C 337.485 223.049 348.982 220.666 357.125 217.297 C 365.341 213.908 374.728 207.676 380.892 201.649 C 387.06 195.629 393.438 186.462 396.907 178.437 C 400.355 170.486 402.793 159.261 402.793 150 C 402.793 140.739 400.355 129.514 396.907 121.563 C 393.438 113.538 387.06 104.371 380.892 98.351 C 374.728 92.324 365.341 86.092 357.125 82.703 C 348.982 79.334 337.485 76.951 328 76.951 C 318.516 76.951 307.019 79.334 298.876 82.703 C 290.66 86.092 281.276 92.327 275.109 98.351 C 268.943 104.374 262.563 113.538 259.094 121.563 C 255.645 129.514 253.207 140.739 253.207 150 C 253.207 154.609 253.811 159.696 254.849 164.652 L 254.926 165.019 L 254.595 165.196 C 244.436 170.594 230.582 177.954 221.793 182.623 C 212.004 187.824 202.214 193.025 192.424 198.227 L 192.093 198.402 L 191.831 198.134 C 191.516 197.811 191.204 197.499 190.891 197.193 C 184.728 191.167 175.341 184.934 167.125 181.545 C 158.982 178.176 147.485 175.793 138 175.793 C 128.516 175.793 117.019 178.176 108.876 181.545 C 100.66 184.934 91.276 191.169 85.109 197.193 C 78.943 203.216 72.563 212.38 69.094 220.405 C 65.645 228.356 63.207 239.581 63.207 248.842 C 63.207 258.104 65.645 269.328 69.094 277.28 C 72.563 285.304 78.943 294.468 85.109 300.491 C 91.276 306.515 100.66 312.75 108.876 316.139 C 117.019 319.508 128.516 321.891 138 321.891 C 147.485 321.891 158.982 319.508 167.125 316.139 C 175.154 312.827 184.3 306.801 190.466 300.903 L 190.727 300.653 L 191.046 300.823 C 200.071 305.629 209.097 310.436 218.123 315.242 C 228 320.503 244.15 329.103 254.621 334.679 L 254.953 334.855 L 254.875 335.223 C 253.822 340.218 253.207 345.352 253.207 350 C 253.207 359.261 255.645 370.486 259.093 378.437 C 262.563 386.462 268.94 395.629 275.109 401.649 C 281.272 407.676 290.66 413.908 298.876 417.297 C 307.019 420.666 318.516 423.049 328 423.049 C 337.484 423.049 348.982 420.666 357.125 417.297 C 365.34 413.908 374.728 407.676 380.891 401.649 C 387.06 395.629 393.438 386.462 396.907 378.437 C 400.355 370.486 402.793 359.261 402.793 350 C 402.793 340.738 400.355 329.514 396.907 321.562 Z M 353.208 350 C 353.208 354.227 352.847 355.851 351.235 359.586 C 349.644 363.248 348.699 364.605 345.82 367.424 C 342.935 370.235 341.549 371.157 337.8 372.711 C 333.98 374.284 332.323 374.635 328 374.635 C 323.677 374.635 322.02 374.284 318.2 372.711 C 314.452 371.157 313.065 370.235 310.18 367.424 C 307.301 364.605 306.356 363.248 304.765 359.586 C 303.153 355.851 302.793 354.226 302.793 350 C 302.793 345.773 303.153 344.149 304.765 340.414 C 306.356 336.752 307.301 335.395 310.18 332.576 C 313.065 329.764 314.452 328.843 318.2 327.289 C 322.02 325.715 323.677 325.365 328 325.365 C 332.323 325.365 333.98 325.715 337.8 327.289 C 341.549 328.843 342.935 329.764 345.82 332.576 C 348.699 335.395 349.644 336.752 351.235 340.414 C 352.847 344.149 353.208 345.773 353.208 350 Z M 350.317 340.812 C 348.774 337.236 347.939 336.039 345.122 333.292 C 342.309 330.538 341.081 329.721 337.418 328.213 C 333.686 326.667 332.221 326.365 328 326.365 C 323.779 326.365 322.314 326.667 318.582 328.213 C 314.92 329.721 313.691 330.538 310.878 333.292 C 308.061 336.039 307.226 337.236 305.683 340.812 C 304.101 344.455 303.793 345.88 303.793 350 C 303.793 354.12 304.101 355.545 305.683 359.188 C 307.226 362.764 308.061 363.961 310.878 366.708 C 313.691 369.461 314.92 370.279 318.582 371.787 C 322.314 373.332 323.779 373.635 328 373.635 C 332.221 373.635 333.686 373.332 337.418 371.787 C 341.081 370.279 342.309 369.461 345.122 366.708 C 347.939 363.961 348.774 362.764 350.317 359.188 C 351.899 355.545 352.208 354.119 352.208 350 C 352.208 345.881 351.899 344.455 350.317 340.812 Z M 163.208 248.842 C 163.208 253.069 162.847 254.694 161.236 258.428 C 159.644 262.09 158.699 263.448 155.82 266.267 C 152.935 269.078 151.549 269.999 147.801 271.553 C 143.981 273.127 142.323 273.478 138 273.478 C 133.677 273.478 132.02 273.127 128.2 271.553 C 124.452 269.999 123.065 269.078 120.18 266.267 C 117.301 263.448 116.356 262.09 114.765 258.428 C 113.153 254.694 112.793 253.068 112.793 248.842 C 112.793 244.616 113.153 242.991 114.765 239.257 C 116.356 235.594 117.301 234.237 120.18 231.418 C 123.065 228.607 124.452 227.686 128.2 226.131 C 132.02 224.558 133.677 224.207 138 224.207 C 142.323 224.207 143.981 224.558 147.801 226.131 C 151.549 227.686 152.935 228.607 155.82 231.418 C 158.699 234.237 159.644 235.594 161.236 239.257 C 162.847 242.991 163.208 244.615 163.208 248.842 Z M 160.318 239.655 C 158.774 236.078 157.939 234.881 155.122 232.134 C 152.309 229.381 151.081 228.564 147.419 227.055 C 143.687 225.51 142.221 225.207 138 225.207 C 133.779 225.207 132.314 225.51 128.582 227.055 C 124.92 228.564 123.691 229.381 120.878 232.134 C 118.061 234.881 117.226 236.078 115.683 239.655 C 114.101 243.297 113.793 244.722 113.793 248.842 C 113.793 252.962 114.101 254.388 115.683 258.03 C 117.226 261.606 118.061 262.804 120.878 265.551 C 123.691 268.304 124.92 269.121 128.582 270.629 C 132.314 272.175 133.779 272.478 138 272.478 C 142.221 272.478 143.687 272.175 147.419 270.629 C 151.081 269.121 152.309 268.304 155.122 265.551 C 157.939 262.804 158.774 261.606 160.318 258.03 C 161.899 254.388 162.208 252.961 162.208 248.842 C 162.208 244.723 161.899 243.297 160.318 239.655 Z M 353.208 150 C 353.208 154.227 352.847 155.851 351.236 159.586 C 349.644 163.248 348.703 164.608 345.82 167.424 C 342.938 170.239 341.549 171.157 337.801 172.71 C 333.981 174.285 332.323 174.635 328 174.635 C 323.677 174.635 322.02 174.285 318.2 172.71 C 314.452 171.157 313.065 170.236 310.18 167.424 C 307.301 164.605 306.356 163.248 304.765 159.586 C 303.153 155.851 302.793 154.226 302.793 150 C 302.793 145.774 303.153 144.149 304.765 140.414 C 306.356 136.752 307.301 135.395 310.18 132.576 C 313.065 129.764 314.452 128.843 318.2 127.289 C 322.02 125.715 323.677 125.365 328 125.365 C 332.323 125.365 333.981 125.715 337.801 127.289 C 341.549 128.843 342.938 129.761 345.82 132.576 C 348.703 135.392 349.644 136.752 351.236 140.414 C 352.847 144.149 353.208 145.773 353.208 150 Z M 350.318 140.812 C 348.774 137.236 347.937 136.042 345.122 133.292 C 342.306 130.541 341.081 129.721 337.419 128.213 C 333.687 126.667 332.221 126.365 328 126.365 C 323.779 126.365 322.314 126.667 318.582 128.213 C 314.92 129.721 313.691 130.538 310.878 133.292 C 308.061 136.039 307.226 137.236 305.683 140.812 C 304.101 144.455 303.793 145.88 303.793 150 C 303.793 154.12 304.101 155.545 305.683 159.188 C 307.226 162.764 308.061 163.961 310.878 166.708 C 313.691 169.462 314.92 170.279 318.582 171.786 C 322.313 173.333 323.779 173.635 328 173.635 C 332.221 173.635 333.687 173.333 337.419 171.786 C 341.081 170.279 342.306 169.459 345.122 166.708 C 347.937 163.958 348.774 162.764 350.318 159.188 C 351.899 155.545 352.208 154.119 352.208 150 C 352.208 145.881 351.899 144.455 350.318 140.812 Z" style="fill: none;"/>
  <path d="M 410.793 350 C 410.793 359.367 408.303 370.79 404.825 378.835 C 401.308 386.946 394.82 396.273 388.589 402.365 C 382.354 408.45 372.808 414.786 364.507 418.221 C 356.274 421.618 344.586 424.049 335 424.049 C 325.414 424.049 313.727 421.618 305.494 418.221 C 297.192 414.786 287.646 408.45 281.411 402.365 C 275.18 396.273 268.693 386.946 265.175 378.835 C 261.697 370.791 259.207 359.367 259.207 350 C 259.207 345.292 259.806 340.31 260.82 335.385 C 250.342 329.806 234.53 321.385 224.653 316.124 C 215.627 311.318 206.813 306.624 197.894 301.875 C 191.661 307.75 182.62 313.707 174.507 317.063 C 166.274 320.46 154.587 322.891 145 322.891 C 135.414 322.891 123.727 320.46 115.494 317.063 C 107.192 313.628 97.644 307.295 91.411 301.207 C 85.177 295.118 78.693 285.788 75.176 277.678 C 71.697 269.633 69.207 258.21 69.207 248.842 C 69.207 239.475 71.697 228.052 75.176 220.007 C 78.693 211.896 85.177 202.566 91.411 196.477 C 97.644 190.389 107.192 184.056 115.494 180.621 C 123.727 177.224 135.414 174.793 145 174.793 C 154.587 174.793 166.274 177.224 174.507 180.621 C 182.809 184.056 192.354 190.392 198.589 196.477 C 198.908 196.788 199.052 196.933 199.284 197.168 C 208.964 192.025 218.534 186.94 228.323 181.739 C 237.112 177.07 250.667 169.869 260.794 164.488 C 259.795 159.604 259.207 154.669 259.207 150 C 259.207 140.633 261.697 129.21 265.176 121.165 C 268.693 113.054 275.177 103.724 281.411 97.635 C 287.644 91.547 297.192 85.214 305.494 81.779 C 313.727 78.382 325.414 75.951 335 75.951 C 344.587 75.951 356.274 78.382 364.507 81.779 C 372.809 85.214 382.354 91.55 388.59 97.635 C 394.82 103.727 401.308 113.054 404.825 121.165 C 408.303 129.21 410.793 140.633 410.793 150 C 410.793 159.367 408.303 170.79 404.825 178.835 C 401.308 186.946 394.82 196.273 388.59 202.365 C 382.354 208.45 372.809 214.786 364.507 218.221 C 356.274 221.618 344.587 224.049 335 224.049 C 325.414 224.049 313.727 221.618 305.494 218.221 C 299.606 215.786 293.289 212.011 287.844 207.868 C 277.575 213.324 261.965 221.618 252.253 226.778 C 241.591 232.442 231.124 238.002 220.561 243.614 C 220.731 245.51 220.793 247.053 220.793 248.842 C 220.793 251.255 220.642 253.59 220.364 256.06 C 229.784 261.077 239.104 266.041 248.625 271.111 C 259.544 276.925 277.783 286.639 287.949 292.052 C 293.37 287.941 299.643 284.199 305.494 281.779 C 313.727 278.382 325.414 275.951 335 275.951 C 344.586 275.951 356.274 278.382 364.507 281.779 C 372.808 285.214 382.354 291.55 388.589 297.635 C 394.82 303.727 401.308 313.054 404.825 321.164 C 408.303 329.21 410.793 340.632 410.793 350 Z M 403.907 321.562 C 400.438 313.538 394.06 304.371 387.891 298.351 C 381.728 292.324 372.34 286.092 364.125 282.703 C 355.982 279.334 344.484 276.951 335 276.951 C 325.516 276.951 314.019 279.334 305.876 282.703 C 300.091 285.091 293.729 288.887 288.301 293.041 L 288.046 293.236 L 287.762 293.085 C 277.657 287.704 259.074 277.807 248.155 271.993 C 238.634 266.923 229.114 261.853 219.593 256.782 L 219.292 256.622 L 219.331 256.283 C 219.632 253.724 219.793 251.223 219.793 248.842 C 219.793 247.077 219.704 245.248 219.536 243.373 L 219.506 243.042 L 219.799 242.886 C 230.46 237.222 241.121 231.558 251.783 225.894 C 261.495 220.734 277.396 212.286 287.658 206.834 L 287.942 206.684 L 288.197 206.879 C 293.648 211.065 300.054 214.894 305.876 217.297 C 314.019 220.666 325.516 223.049 335 223.049 C 344.485 223.049 355.982 220.666 364.125 217.297 C 372.341 213.908 381.728 207.676 387.892 201.649 C 394.06 195.629 400.438 186.462 403.907 178.437 C 407.355 170.486 409.793 159.261 409.793 150 C 409.793 140.739 407.355 129.514 403.907 121.563 C 400.438 113.538 394.06 104.371 387.892 98.351 C 381.728 92.324 372.341 86.092 364.125 82.703 C 355.982 79.334 344.485 76.951 335 76.951 C 325.516 76.951 314.019 79.334 305.876 82.703 C 297.66 86.092 288.276 92.327 282.109 98.351 C 275.943 104.374 269.563 113.538 266.094 121.563 C 262.645 129.514 260.207 140.739 260.207 150 C 260.207 154.609 260.811 159.696 261.849 164.652 L 261.926 165.019 L 261.595 165.196 C 251.436 170.594 237.582 177.954 228.793 182.623 C 219.004 187.824 209.214 193.025 199.424 198.227 L 199.093 198.402 L 198.831 198.134 C 198.516 197.811 198.204 197.499 197.891 197.193 C 191.728 191.167 182.341 184.934 174.125 181.545 C 165.982 178.176 154.485 175.793 145 175.793 C 135.516 175.793 124.019 178.176 115.876 181.545 C 107.66 184.934 98.276 191.169 92.109 197.193 C 85.943 203.216 79.563 212.38 76.094 220.405 C 72.645 228.356 70.207 239.581 70.207 248.842 C 70.207 258.104 72.645 269.328 76.094 277.28 C 79.563 285.304 85.943 294.468 92.109 300.491 C 98.276 306.515 107.66 312.75 115.876 316.139 C 124.019 319.508 135.516 321.891 145 321.891 C 154.485 321.891 165.982 319.508 174.125 316.139 C 182.154 312.827 191.3 306.801 197.466 300.903 L 197.727 300.653 L 198.046 300.823 C 207.071 305.629 216.097 310.436 225.123 315.242 C 235 320.503 251.15 329.103 261.621 334.679 L 261.953 334.855 L 261.875 335.223 C 260.822 340.218 260.207 345.352 260.207 350 C 260.207 359.261 262.645 370.486 266.093 378.437 C 269.563 386.462 275.94 395.629 282.109 401.649 C 288.272 407.676 297.66 413.908 305.876 417.297 C 314.019 420.666 325.516 423.049 335 423.049 C 344.484 423.049 355.982 420.666 364.125 417.297 C 372.34 413.908 381.728 407.676 387.891 401.649 C 394.06 395.629 400.438 386.462 403.907 378.437 C 407.355 370.486 409.793 359.261 409.793 350 C 409.793 340.738 407.355 329.514 403.907 321.562 Z M 360.208 350 C 360.208 354.227 359.847 355.851 358.235 359.586 C 356.644 363.248 355.699 364.605 352.82 367.424 C 349.935 370.235 348.549 371.157 344.8 372.711 C 340.98 374.284 339.323 374.635 335 374.635 C 330.677 374.635 329.02 374.284 325.2 372.711 C 321.452 371.157 320.065 370.235 317.18 367.424 C 314.301 364.605 313.356 363.248 311.765 359.586 C 310.153 355.851 309.793 354.226 309.793 350 C 309.793 345.773 310.153 344.149 311.765 340.414 C 313.356 336.752 314.301 335.395 317.18 332.576 C 320.065 329.764 321.452 328.843 325.2 327.289 C 329.02 325.715 330.677 325.365 335 325.365 C 339.323 325.365 340.98 325.715 344.8 327.289 C 348.549 328.843 349.935 329.764 352.82 332.576 C 355.699 335.395 356.644 336.752 358.235 340.414 C 359.847 344.149 360.208 345.773 360.208 350 Z M 357.317 340.812 C 355.774 337.236 354.939 336.039 352.122 333.292 C 349.309 330.538 348.081 329.721 344.418 328.213 C 340.686 326.667 339.221 326.365 335 326.365 C 330.779 326.365 329.314 326.667 325.582 328.213 C 321.92 329.721 320.691 330.538 317.878 333.292 C 315.061 336.039 314.226 337.236 312.683 340.812 C 311.101 344.455 310.793 345.88 310.793 350 C 310.793 354.12 311.101 355.545 312.683 359.188 C 314.226 362.764 315.061 363.961 317.878 366.708 C 320.691 369.461 321.92 370.279 325.582 371.787 C 329.314 373.332 330.779 373.635 335 373.635 C 339.221 373.635 340.686 373.332 344.418 371.787 C 348.081 370.279 349.309 369.461 352.122 366.708 C 354.939 363.961 355.774 362.764 357.317 359.188 C 358.899 355.545 359.208 354.119 359.208 350 C 359.208 345.881 358.899 344.455 357.317 340.812 Z M 170.208 248.842 C 170.208 253.069 169.847 254.694 168.236 258.428 C 166.644 262.09 165.699 263.448 162.82 266.267 C 159.935 269.078 158.549 269.999 154.801 271.553 C 150.981 273.127 149.323 273.478 145 273.478 C 140.677 273.478 139.02 273.127 135.2 271.553 C 131.452 269.999 130.065 269.078 127.18 266.267 C 124.301 263.448 123.356 262.09 121.765 258.428 C 120.153 254.694 119.793 253.068 119.793 248.842 C 119.793 244.616 120.153 242.991 121.765 239.257 C 123.356 235.594 124.301 234.237 127.18 231.418 C 130.065 228.607 131.452 227.686 135.2 226.131 C 139.02 224.558 140.677 224.207 145 224.207 C 149.323 224.207 150.981 224.558 154.801 226.131 C 158.549 227.686 159.935 228.607 162.82 231.418 C 165.699 234.237 166.644 235.594 168.236 239.257 C 169.847 242.991 170.208 244.615 170.208 248.842 Z M 167.318 239.655 C 165.774 236.078 164.939 234.881 162.122 232.134 C 159.309 229.381 158.081 228.564 154.419 227.055 C 150.687 225.51 149.221 225.207 145 225.207 C 140.779 225.207 139.314 225.51 135.582 227.055 C 131.92 228.564 130.691 229.381 127.878 232.134 C 125.061 234.881 124.226 236.078 122.683 239.655 C 121.101 243.297 120.793 244.722 120.793 248.842 C 120.793 252.962 121.101 254.388 122.683 258.03 C 124.226 261.606 125.061 262.804 127.878 265.551 C 130.691 268.304 131.92 269.121 135.582 270.629 C 139.314 272.175 140.779 272.478 145 272.478 C 149.221 272.478 150.687 272.175 154.419 270.629 C 158.081 269.121 159.309 268.304 162.122 265.551 C 164.939 262.804 165.774 261.606 167.318 258.03 C 168.899 254.388 169.208 252.961 169.208 248.842 C 169.208 244.723 168.899 243.297 167.318 239.655 Z M 360.208 150 C 360.208 154.227 359.847 155.851 358.236 159.586 C 356.644 163.248 355.703 164.608 352.82 167.424 C 349.938 170.239 348.549 171.157 344.801 172.71 C 340.981 174.285 339.323 174.635 335 174.635 C 330.677 174.635 329.02 174.285 325.2 172.71 C 321.452 171.157 320.065 170.236 317.18 167.424 C 314.301 164.605 313.356 163.248 311.765 159.586 C 310.153 155.851 309.793 154.226 309.793 150 C 309.793 145.774 310.153 144.149 311.765 140.414 C 313.356 136.752 314.301 135.395 317.18 132.576 C 320.065 129.764 321.452 128.843 325.2 127.289 C 329.02 125.715 330.677 125.365 335 125.365 C 339.323 125.365 340.981 125.715 344.801 127.289 C 348.549 128.843 349.938 129.761 352.82 132.576 C 355.703 135.392 356.644 136.752 358.236 140.414 C 359.847 144.149 360.208 145.773 360.208 150 Z M 357.318 140.812 C 355.774 137.236 354.937 136.042 352.122 133.292 C 349.306 130.541 348.081 129.721 344.419 128.213 C 340.687 126.667 339.221 126.365 335 126.365 C 330.779 126.365 329.314 126.667 325.582 128.213 C 321.92 129.721 320.691 130.538 317.878 133.292 C 315.061 136.039 314.226 137.236 312.683 140.812 C 311.101 144.455 310.793 145.88 310.793 150 C 310.793 154.12 311.101 155.545 312.683 159.188 C 314.226 162.764 315.061 163.961 317.878 166.708 C 320.691 169.462 321.92 170.279 325.582 171.786 C 329.313 173.333 330.779 173.635 335 173.635 C 339.221 173.635 340.687 173.333 344.419 171.786 C 348.081 170.279 349.306 169.459 352.122 166.708 C 354.937 163.958 355.774 162.764 357.318 159.188 C 358.899 155.545 359.208 154.119 359.208 150 C 359.208 145.881 358.899 144.455 357.318 140.812 Z" style="fill: none;"/>
  <path style="fill: none; stroke-width: 50px;" d="M 193.73 226.947 C 224.769 211.821 255.807 196.696 286.846 181.57" transform="matrix(0.999391, -0.034899, 0.034899, 0.999391, -6.982044, 8.510235)"/>
  <path style="fill: none; stroke-width: 50px;" d="M 189.558 269.59 C 220.945 285.609 252.333 301.626 283.721 317.646" transform="matrix(0.999848, 0.017453, -0.017453, 0.999848, 5.160558, -4.085346)"/>
</svg>