<?xml version="1.0" standalone="no"?>
<!DOCTYPE svg PUBLIC "-//W3C//DTD SVG 20010904//EN"
 "http://www.w3.org/TR/2001/REC-SVG-20010904/DTD/svg10.dtd">
<svg version="1.0" xmlns="http://www.w3.org/2000/svg"
 width="700.000000pt" height="700.000000pt" viewBox="0 0 700.000000 700.000000"
 preserveAspectRatio="xMidYMid meet">
<metadata>
Created by potrace 1.14, written by Peter Selinger 2001-2017
</metadata>
<g transform="translate(0.000000,700.000000) scale(0.100000,-0.100000)"
fill="#000000" stroke="none">
<path d="M3279 6645 c-3 -2 -35 -6 -73 -10 -97 -8 -224 -26 -342 -49 -254 -50
-549 -154 -804 -285 -199 -101 -473 -286 -625 -421 -62 -55 -257 -251 -305
-305 -227 -259 -432 -592 -553 -902 -19 -48 -38 -97 -42 -108 -5 -11 -9 -22
-10 -25 -1 -3 -15 -50 -32 -105 -27 -86 -36 -118 -49 -170 -40 -170 -39 -163
-48 -228 -4 -27 -9 -59 -12 -70 -2 -12 -7 -44 -10 -72 -3 -27 -8 -70 -12 -95
-3 -25 -7 -811 -9 -1748 l-4 -1703 1708 4 c939 2 1728 7 1753 10 25 4 65 9 90
12 603 74 1207 346 1675 755 49 42 258 251 303 303 113 129 275 358 365 519
137 242 271 582 322 818 38 174 58 296 73 445 9 96 9 482 -1 580 -13 121 -29
228 -47 315 -5 25 -12 56 -14 70 -35 212 -182 597 -326 855 -139 250 -313 478
-525 690 -419 419 -925 704 -1495 839 -123 30 -256 53 -343 62 -34 3 -73 8
-87 11 -30 6 -516 14 -521 8z"/>
</g>
</svg>
